<svg xmlns="http://www.w3.org/2000/svg" xmlns:xlink="http://www.w3.org/1999/xlink" width="500" zoomAndPan="magnify" viewBox="0 0 375 374.999991" height="500" preserveAspectRatio="xMidYMid meet" version="1.0"><defs><g/><clipPath id="3cdfe8cbb9"><path d="M 42.457031 179.496094 L 239.996094 179.496094 L 239.996094 289.882812 L 42.457031 289.882812 Z M 42.457031 179.496094 " clip-rule="nonzero"/></clipPath></defs><g fill="#304945" fill-opacity="1"><g transform="translate(96.016247, 288.023819)"><g><path d="M -4.328125 0 L 35.03125 0 L 35.03125 -3.96875 C 22.390625 -6.5 22.390625 -19.859375 31.78125 -42.609375 L 53.4375 -96.421875 L 161.0625 -96.421875 L 183.4375 -42.25 C 196.078125 -11.5625 196.4375 -6.5 186.328125 -3.96875 L 186.328125 0 L 231.828125 0 L 231.828125 -3.96875 C 224.609375 -6.5 217.03125 -11.5625 204.390625 -42.25 L 116.640625 -255.296875 L 98.21875 -247.359375 L 100.390625 -242.671875 C 102.921875 -237.609375 103.28125 -233.640625 101.109375 -228.21875 L 26 -42.609375 C 13.359375 -11.5625 4.6875 -6.5 -4.328125 -3.96875 Z M 55.609375 -101.46875 L 106.53125 -228.21875 L 158.890625 -101.46875 Z M 55.609375 -101.46875 "/></g></g></g><g clip-path="url(#3cdfe8cbb9)"><path fill="#ffffff" d="M 42.457031 179.496094 L 239.945312 179.496094 L 239.945312 289.882812 L 42.457031 289.882812 Z M 42.457031 179.496094 " fill-opacity="1" fill-rule="nonzero"/></g><g fill="#304945" fill-opacity="1"><g transform="translate(92.130482, 240.720735)"><g><path d="M 63.8125 -36 C 63.625 -35.113281 60.378906 -31.160156 54.078125 -24.140625 C 52.296875 -22.140625 50.625 -20.335938 49.0625 -18.734375 C 47.507812 -17.128906 46.023438 -15.707031 44.609375 -14.46875 C 33.359375 -4.332031 26.203125 0.664062 23.140625 0.53125 C 21.628906 0.445312 20.425781 -0.128906 19.53125 -1.203125 C 18.78125 -2.179688 18.40625 -3.203125 18.40625 -4.265625 C 18.40625 -6.484375 20.492188 -10.484375 24.671875 -16.265625 C 23.773438 -15.421875 22.460938 -14.273438 20.734375 -12.828125 C 19.003906 -11.390625 16.867188 -9.601562 14.328125 -7.46875 C 10.691406 -4.488281 8.648438 -2.84375 8.203125 -2.53125 C 5.753906 -0.75 3.910156 0.140625 2.671875 0.140625 C 1.910156 0.140625 1.285156 -0.171875 0.796875 -0.796875 C 0.171875 -1.597656 -0.113281 -2.554688 -0.0625 -3.671875 C 0.0195312 -6.378906 4.617188 -13.957031 13.734375 -26.40625 C 14.046875 -26.84375 14.8125 -27.816406 16.03125 -29.328125 C 17.257812 -30.847656 18.9375 -32.941406 21.0625 -35.609375 C 24.175781 -39.429688 25.753906 -41.675781 25.796875 -42.34375 C 25.890625 -42.957031 25.710938 -43.289062 25.265625 -43.34375 C 23.710938 -43.519531 20.113281 -41.648438 14.46875 -37.734375 C 12.738281 -36.535156 10.492188 -34.425781 7.734375 -31.40625 C 5.378906 -28.875 4.113281 -27.628906 3.9375 -27.671875 C 3.40625 -27.804688 3.179688 -28.316406 3.265625 -29.203125 C 3.359375 -30.222656 4.40625 -31.84375 6.40625 -34.0625 C 7.425781 -35.175781 8.457031 -36.222656 9.5 -37.203125 C 10.539062 -38.179688 11.640625 -39.09375 12.796875 -39.9375 C 15.203125 -41.757812 17.804688 -43.316406 20.609375 -44.609375 C 23.398438 -45.890625 25.617188 -46.53125 27.265625 -46.53125 C 28.867188 -46.53125 29.671875 -45.707031 29.671875 -44.0625 C 29.671875 -43.757812 29.625 -43.382812 29.53125 -42.9375 C 29.3125 -42 27.867188 -39.707031 25.203125 -36.0625 C 22.316406 -32.195312 20.128906 -29.253906 18.640625 -27.234375 C 17.148438 -25.210938 16.316406 -24.09375 16.140625 -23.875 L 5.328125 -8.59375 C 4.347656 -6.957031 3.796875 -5.828125 3.671875 -5.203125 C 3.617188 -4.929688 3.632812 -4.660156 3.71875 -4.390625 C 3.8125 -4.128906 3.953125 -4 4.140625 -4 C 4.710938 -4.039062 5.265625 -4.296875 5.796875 -4.765625 C 6.328125 -5.234375 6.835938 -5.664062 7.328125 -6.0625 C 8.085938 -6.6875 9.203125 -7.609375 10.671875 -8.828125 C 12.140625 -10.054688 13.960938 -11.554688 16.140625 -13.328125 C 17.910156 -14.796875 19.785156 -16.304688 21.765625 -17.859375 C 23.742188 -19.421875 25.84375 -21.046875 28.0625 -22.734375 L 35.265625 -30.53125 C 38.554688 -34.09375 40.671875 -35.875 41.609375 -35.875 C 42.535156 -35.875 43 -35.335938 43 -34.265625 C 43 -34.046875 42.976562 -33.914062 42.9375 -33.875 C 42.175781 -32.175781 40.796875 -30.351562 38.796875 -28.40625 C 37.242188 -26.84375 36.054688 -25.660156 35.234375 -24.859375 C 34.410156 -24.066406 33.976562 -23.648438 33.9375 -23.609375 C 32.78125 -22.222656 31.585938 -20.738281 30.359375 -19.15625 C 29.140625 -17.582031 27.910156 -15.863281 26.671875 -14 C 23.421875 -9.25 21.773438 -6.050781 21.734375 -4.40625 C 21.734375 -4.3125 21.773438 -4.175781 21.859375 -4 C 21.953125 -3.820312 22.078125 -3.632812 22.234375 -3.4375 C 22.390625 -3.238281 22.535156 -3.070312 22.671875 -2.9375 C 22.804688 -2.800781 22.914062 -2.734375 23 -2.734375 C 25.9375 -2.773438 32.71875 -7.617188 43.34375 -17.265625 C 44.050781 -17.890625 45.113281 -18.945312 46.53125 -20.4375 C 47.957031 -21.925781 49.78125 -23.867188 52 -26.265625 C 52.625 -26.890625 53.476562 -27.820312 54.5625 -29.0625 C 55.65625 -30.3125 56.976562 -31.867188 58.53125 -33.734375 C 60.84375 -36.441406 62.085938 -37.796875 62.265625 -37.796875 C 62.671875 -37.753906 63.050781 -37.53125 63.40625 -37.125 C 63.757812 -36.726562 63.894531 -36.351562 63.8125 -36 Z M 63.8125 -36 "/></g></g></g><g fill="#304945" fill-opacity="1"><g transform="translate(136.931754, 240.720735)"><g><path d="M 22.53125 -5.0625 C 22.53125 -4.445312 20.707031 -3.445312 17.0625 -2.0625 C 13.0625 -0.46875 9.726562 0.328125 7.0625 0.328125 C 4.882812 0.328125 3.128906 -0.0664062 1.796875 -0.859375 C 0.460938 -1.660156 -0.203125 -2.617188 -0.203125 -3.734375 C -0.203125 -5.953125 1.640625 -8.664062 5.328125 -11.875 C 7.285156 -13.5625 9.53125 -15.226562 12.0625 -16.875 C 14.375 -18.332031 15.796875 -19.0625 16.328125 -19.0625 C 17.753906 -19.0625 18.46875 -18.484375 18.46875 -17.328125 C 18.46875 -15.640625 16.535156 -13.441406 12.671875 -10.734375 C 9.734375 -8.640625 7.285156 -7.109375 5.328125 -6.140625 C 4.046875 -5.242188 3.40625 -4.441406 3.40625 -3.734375 C 3.40625 -2.578125 4.828125 -2 7.671875 -2 C 9.671875 -2 12.378906 -2.6875 15.796875 -4.0625 C 19.265625 -5.445312 21.109375 -6.140625 21.328125 -6.140625 C 22.128906 -6.140625 22.53125 -5.78125 22.53125 -5.0625 Z M 22.53125 -5.0625 "/></g></g></g><g fill="#304945" fill-opacity="1"><g transform="translate(156.198967, 240.720735)"><g><path d="M 60.671875 -44.40625 C 60.671875 -43.507812 59.203125 -41.664062 56.265625 -38.875 C 54.578125 -37.3125 52.753906 -35.753906 50.796875 -34.203125 C 48.847656 -32.648438 46.738281 -31.117188 44.46875 -29.609375 C 41.445312 -27.609375 36.976562 -25.296875 31.0625 -22.671875 C 22.570312 -18.929688 17.972656 -16.796875 17.265625 -16.265625 C 16.910156 -16.003906 16.453125 -15.671875 15.890625 -15.265625 C 15.335938 -14.867188 14.6875 -14.40625 13.9375 -13.875 C 12.15625 -12.445312 10.554688 -11 9.140625 -9.53125 C 5.222656 -5.351562 3.265625 -2.753906 3.265625 -1.734375 C 3.265625 -1.066406 3.578125 -0.734375 4.203125 -0.734375 C 5.359375 -0.734375 7.113281 -1.421875 9.46875 -2.796875 C 10.488281 -3.421875 11.53125 -4.066406 12.59375 -4.734375 C 13.664062 -5.398438 14.734375 -6.046875 15.796875 -6.671875 C 16.460938 -7.472656 17.578125 -8.492188 19.140625 -9.734375 C 21.710938 -11.828125 23.554688 -12.875 24.671875 -12.875 C 25.554688 -12.875 26 -12.40625 26 -11.46875 C 26 -9.738281 24.289062 -7.691406 20.875 -5.328125 C 21.71875 -4.617188 22.984375 -4.265625 24.671875 -4.265625 C 25.734375 -4.265625 26.832031 -4.34375 27.96875 -4.5 C 29.101562 -4.65625 30.289062 -4.890625 31.53125 -5.203125 C 32.78125 -5.515625 33.769531 -5.75 34.5 -5.90625 C 35.238281 -6.0625 35.738281 -6.140625 36 -6.140625 C 36.53125 -6.140625 36.796875 -5.671875 36.796875 -4.734375 C 36.796875 -4.421875 35.019531 -3.820312 31.46875 -2.9375 C 27.6875 -2.039062 24.929688 -1.59375 23.203125 -1.59375 C 21.554688 -1.59375 19.351562 -2.375 16.59375 -3.9375 L 10 -0.328125 C 7.332031 0.953125 5.046875 1.59375 3.140625 1.59375 C 2.109375 1.59375 1.195312 1.195312 0.40625 0.40625 C -0.21875 -0.21875 -0.53125 -0.773438 -0.53125 -1.265625 C -0.53125 -2.734375 0.222656 -4.421875 1.734375 -6.328125 C 2.046875 -6.640625 3.644531 -8.375 6.53125 -11.53125 C 7.90625 -13 9.503906 -14.398438 11.328125 -15.734375 C 14.753906 -18.265625 16.488281 -19.550781 16.53125 -19.59375 L 25.328125 -27 C 27.734375 -29 29.976562 -30.796875 32.0625 -32.390625 C 34.15625 -33.992188 36.132812 -35.398438 38 -36.609375 C 41.195312 -38.734375 43.726562 -40.40625 45.59375 -41.625 C 47.46875 -42.851562 48.691406 -43.644531 49.265625 -44 C 53.441406 -46.488281 56.265625 -47.734375 57.734375 -47.734375 C 58.492188 -47.734375 59.171875 -47.390625 59.765625 -46.703125 C 60.367188 -46.015625 60.671875 -45.25 60.671875 -44.40625 Z M 57.609375 -44.40625 C 57.609375 -44.757812 57.472656 -44.9375 57.203125 -44.9375 C 55.335938 -44.9375 49.445312 -41.378906 39.53125 -34.265625 C 38.425781 -33.515625 36.804688 -32.257812 34.671875 -30.5 C 32.535156 -28.75 29.847656 -26.492188 26.609375 -23.734375 C 28.472656 -24.441406 30.046875 -25.050781 31.328125 -25.5625 C 32.617188 -26.070312 33.644531 -26.507812 34.40625 -26.875 C 35.957031 -27.582031 37.441406 -28.3125 38.859375 -29.0625 C 40.285156 -29.820312 41.644531 -30.625 42.9375 -31.46875 C 44.539062 -32.488281 46.148438 -33.628906 47.765625 -34.890625 C 49.390625 -36.160156 51.023438 -37.507812 52.671875 -38.9375 C 55.960938 -41.820312 57.609375 -43.644531 57.609375 -44.40625 Z M 57.609375 -44.40625 "/></g></g></g><g fill="#304945" fill-opacity="1"><g transform="translate(189.266562, 240.720735)"><g><path d="M 33.53125 -9.265625 C 32.425781 -8.816406 30.992188 -8.25 29.234375 -7.5625 C 27.484375 -6.875 25.363281 -6.019531 22.875 -5 C 22.113281 -4.78125 21.144531 -4.4375 19.96875 -3.96875 C 18.789062 -3.5 17.398438 -2.953125 15.796875 -2.328125 C 14.378906 -1.171875 12.691406 -0.0820312 10.734375 0.9375 C 8.828125 1.957031 7.5625 2.46875 6.9375 2.46875 C 5.820312 2.46875 5.265625 1.890625 5.265625 0.734375 C 5.265625 0.597656 5.820312 0.0664062 6.9375 -0.859375 C 8.664062 -2.378906 9.796875 -3.378906 10.328125 -3.859375 C 10.953125 -4.441406 11.472656 -4.976562 11.890625 -5.46875 C 12.316406 -5.957031 12.644531 -6.378906 12.875 -6.734375 C 12.914062 -6.773438 13.179688 -7.640625 13.671875 -9.328125 C 12.953125 -9.023438 12.023438 -8.613281 10.890625 -8.09375 C 9.765625 -7.582031 8.425781 -6.972656 6.875 -6.265625 L 3.265625 -4.46875 C 1.929688 -3.800781 1.039062 -3.46875 0.59375 -3.46875 C 0.0195312 -3.46875 -0.265625 -3.957031 -0.265625 -4.9375 C -0.265625 -5.46875 3.507812 -7.664062 11.0625 -11.53125 C 12.3125 -12.195312 13.546875 -12.863281 14.765625 -13.53125 C 15.984375 -14.195312 17.21875 -14.84375 18.46875 -15.46875 C 20.738281 -16.664062 22.226562 -17.265625 22.9375 -17.265625 C 23.78125 -17.265625 24.203125 -16.644531 24.203125 -15.40625 C 24.203125 -14.957031 23.359375 -14.085938 21.671875 -12.796875 C 21.003906 -12.304688 20.335938 -11.816406 19.671875 -11.328125 C 19.003906 -10.835938 18.3125 -10.351562 17.59375 -9.875 C 17.46875 -8.976562 17.046875 -7.753906 16.328125 -6.203125 C 17.085938 -6.460938 18.097656 -6.789062 19.359375 -7.1875 C 20.628906 -7.59375 22.109375 -8.085938 23.796875 -8.671875 C 29.265625 -10.222656 32.066406 -11 32.203125 -11 C 33.085938 -11 33.53125 -10.421875 33.53125 -9.265625 Z M 33.53125 -9.265625 "/></g></g></g></svg>