<svg xmlns="http://www.w3.org/2000/svg" width="24.19338" height="24.96688" viewBox="0 0 24.19338 24.96688" creator="Katerina Limpitsouni"><path d="M10.3101,16.65494c2.52209-4.57641,5.04418-9.15282,7.56627-13.72923,.46624-.84601-.82866-1.60363-1.29521-.75708-2.52209,4.57641-5.04418,9.15282-7.56627,13.72923-.46624,.84601,.82866,1.60363,1.29521,.75708h0Z" fill="#01010C" origin="undraw"/><path d="M1.39489,14.85628C3.91698,10.27987,6.43907,5.70346,8.96116,1.12705c.46624-.84601-.82866-1.60363-1.29521-.75708C5.14386,4.94638,2.62177,9.52279,.09968,14.0992c-.46624,.84601,.82866,1.60363,1.29521,.75708h0Z" fill="#01010C"/><path d="M16.52743,24.59691c2.52209-4.57641,5.04418-9.15282,7.56627-13.72923,.46624-.84601-.82866-1.60363-1.29521-.75708-2.52209,4.57641-5.04418,9.15282-7.56627,13.72923-.46624,.84601,.82866,1.60363,1.29521,.75708h0Z" fill="#01010C"/></svg>